<svg id="Capa_1" enable-background="new 0 0 512 512" height="512" viewBox="0 0 512 512" width="512" xmlns="http://www.w3.org/2000/svg"><g><path d="m293.176 451.035c-131.52 0-278.176 0-278.176 0-8.401 0-15-6.601-15-15v-15l15-15-15-15v-30l15-15-15-15v-30l15-15-15-15 15-30h195l45-180h242c8.401 0 15 6.599 15 15v15l-15 15 15 15v30l-15 15 15 15v30l-15 15 15 15v30l-15 15 15 15v30l-15 15 15 15v30l-15 15 15 15v15c0 8.399-6.599 15-15 15 0 0-96.911 0-203.824 0z" fill="#e64545"/><path d="m293.176 450.965h203.824c8.284 0 15-6.716 15-15v-15l-15-15 15-15v-30l-15-15 15-15v-30l-15-15 15-15v-30l-15-15 15-15v-30l-15-15 15-15v-30l-15-15 15-15v-15c0-8.284-6.716-15-15-15h-242v390z" fill="#cc2929"/><g><g id="Flag_1_"><g><g><g><path d="m0 331.035h512v30h-512z" fill="#f0f7ff"/></g></g></g><g><g><g><path d="m0 391.035h512v30h-512z" fill="#f0f7ff"/></g></g></g><g><g><g><path d="m0 271.035h512v30h-512z" fill="#f0f7ff"/></g></g></g><g><g><g><path d="m512 211.035v30h-257c-8.284 0-15-6.716-15-15 0-8.284 6.716-15 15-15z" fill="#dfe7f4"/></g></g></g><g><path d="m512 151.035v30h-257c-8.401 0-15-6.601-15-15 0-8.401 6.599-15 15-15z" fill="#dfe7f4"/></g><g><path d="m512 91.035v30h-257c-8.401 0-15-6.601-15-15 0-8.401 6.599-15 15-15z" fill="#dfe7f4"/></g></g></g><g><g><g><path d="m255 391.035h257v30h-257z" fill="#dfe7f4"/></g><g><path d="m255 331.035h257v30h-257z" fill="#dfe7f4"/></g><g><path d="m255 271.035h257v30h-257z" fill="#dfe7f4"/></g><g><path d="m255 151.035h257v30h-257z" fill="#dfe7f4"/></g><g><path d="m255 91.035h257v30h-257z" fill="#dfe7f4"/></g></g></g><g><path d="m255 271.035h-255v-195c0-8.284 6.716-15 15-15h240z" fill="#4d6aff"/></g><g><circle cx="75" cy="136.035" fill="#dfe7f4" r="15"/></g><g><circle cx="135" cy="136.035" fill="#dfe7f4" r="15"/></g><g><circle cx="195" cy="136.035" fill="#dfe7f4" r="15"/></g><g><circle cx="75" cy="196.035" fill="#dfe7f4" r="15"/></g><g><circle cx="135" cy="196.035" fill="#dfe7f4" r="15"/></g><g><circle cx="195" cy="196.035" fill="#dfe7f4" r="15"/></g></g></svg>