<?xml version="1.0"?>
<svg xmlns="http://www.w3.org/2000/svg" xmlns:xlink="http://www.w3.org/1999/xlink" version="1.1" id="Capa_1" x="0px" y="0px" width="512px" height="512px" viewBox="0 0 590.907 590.907" style="enable-background:new 0 0 590.907 590.907;" xml:space="preserve"><g transform="matrix(-1 0 0 1 590.907 0)"><g>
	<g>
		<path d="M522.177,42.788l0.977-2.653c4.256-11.545,3.602-21.436-1.949-29.391C516.517,4.015,508.759,0,500.457,0    c-6.744,0-13.326,2.485-20.089,7.586L81.482,262.937l-1.87,1.337c-9.293,7.356-14.642,18.045-14.679,29.324    c-0.037,11.279,5.248,22.001,14.492,29.418l0.899,0.723l400.003,259.454c6.787,5.187,13.406,7.714,20.205,7.714    c8.269,0,16.004-3.999,20.695-10.691c5.548-7.926,6.236-17.791,2.038-29.333l-0.955-2.632L356.08,300.981    c-0.862-4.152-0.851-10.392,0.027-14.547L522.177,42.788z M433.128,497.865L118.462,293.763l2.139-1.371h189.004    c-0.147,9.317,1.126,18.712,3.892,26.322l0.958,2.631L433.128,497.865z" data-original="#000000" class="active-path" style="--darkreader-inline-" data-darkreader-inline-fill="" data-old_color="#000000" fill="#FFFFFF"/>
	</g>
</g></g> </svg>
