<svg id="eagle" enable-background="new 0 0 300 300" height="512" viewBox="0 0 300 300" width="512" xmlns="http://www.w3.org/2000/svg" xmlns:xlink="http://www.w3.org/1999/xlink"><linearGradient id="SVGID_1_" gradientUnits="userSpaceOnUse" x1="79.693" x2="268.424" y1="248.395" y2="59.664"><stop offset="0" stop-color="#107eff"/><stop offset="1" stop-color="#8f16ff"/></linearGradient><g><path d="m260.954 96c0-2.209 1.791-4 4-4s4 1.791 4 4-1.791 4-4 4-4-1.791-4-4zm-220 104c-2.209 0-4 1.791-4 4s1.791 4 4 4 4-1.791 4-4-1.79-4-4-4zm35.676-22.877c1.024 0 2.047-.391 2.828-1.172 1.562-1.562 1.562-4.096 0-5.656l-4.564-4.562 4.564-4.562c1.562-1.561 1.562-4.094 0-5.656s-4.094-1.562-5.656 0l-4.564 4.563-4.564-4.563c-1.562-1.562-4.094-1.562-5.656 0s-1.562 4.096 0 5.656l4.564 4.562-4.564 4.562c-1.562 1.561-1.562 4.094 0 5.656.781.781 1.805 1.172 2.828 1.172s2.047-.391 2.828-1.172l4.564-4.563 4.564 4.563c.781.781 1.805 1.172 2.828 1.172zm192.313 83.162c-.137 1.959-1.68 3.525-3.641 3.697-.117.012-.234.016-.352.016-1.816 0-3.426-1.234-3.875-3.025-.07-.28-6.758-26.213-22.117-35.51-3.457 8.014-11.281 26.035-14.426 32.326-.824 1.656-2.652 2.541-4.496 2.103-1.805-.426-3.078-2.037-3.082-3.89-.012-9.381-2.57-33.012-13.625-38.94l-10.629 28.342c-.496 1.324-1.656 2.289-3.051 2.535-1.39.25-2.812-.264-3.73-1.336-1.746-2.037-12.754-15.053-19.555-27.276-1.934 5.864-5.304 12.076-11.191 16-1.77 1.178-4.148.768-5.418-.928-.422-.559-8.211-11.142-9.457-26.076-7.269 9.801-12.426 20.609-15.344 32.176l-.121.48c-.41 1.621-1.785 2.816-3.449 2.996-1.703.188-3.262-.695-4.008-2.187-.973-1.948-7.528-15.412-8.953-27.602l-20.641 20.64c-1.562 1.563-4.094 1.563-5.656 0-4.856-4.855-12.098-17.922-4.75-32.617 7.051-14.102 25.469-33.574 31.113-39.377l-9.333-34.214c-21.88-.995-36.905 3.169-37.105 3.226-.848.244-1.762.197-2.582-.131l-6.684-2.674c-2.57 4.05-3.832 9.002-3.832 14.959 0 1.774-1.168 3.334-2.867 3.836-.374.113-.756.166-1.132.166-1.332 0-2.609-.666-3.359-1.826-.782-1.209-19.008-29.852-7.203-52.723 7.772-15.056 26.466-23.538 55.524-25.277.019-.022.023-.051.042-.073 10.863-12.25 43.191-37.93 108.48-11.816 34.59 13.836 56.953 52.564 66.469 115.113 6.989 45.91 4.067 88.463 4.036 88.887zm-215.531-143.518c17.656-13.492 50.707-10.449 73.289-6.188l-23.894-15.205c-1.547-.986-2.226-2.899-1.644-4.641 2.406-7.228-6.328-13.031-9.152-14.686-26.992 1.344-43.98 8.43-50.508 21.072-5.773 11.186-2.32 24.799 1.453 34.045 1.998-5.786 5.494-10.604 10.456-14.397zm185.586-7.492c1.286 26.186-9.906 47.479-10.524 48.623-.723 1.34-2.098 2.102-3.52 2.102-.641 0-1.289-.154-1.894-.48-1.946-1.045-2.672-3.471-1.629-5.416.164-.305 14.922-28.34 7.645-58.053-3.414 3.973-8.688 7.949-16.121 7.949-2.211 0-4-1.791-4-4s1.789-4 4-4c6.708 0 10.86-5.702 12.637-8.832-8.119-10.372-18.008-18.608-30.121-23.454-55.999-22.402-85.16-4.509-96.954 7.008 4.784 3.317 12.239 10.074 10.965 19.418l41.621 26.484c1.301.828 2.012 2.332 1.82 3.863-.188 1.531-1.238 2.818-2.703 3.306l-24 8c-.684.229-1.422.274-2.133.11-5.73-1.272-11.228-2.097-16.461-2.637l9.187 33.68c.379 1.385-.016 2.865-1.031 3.881-.234.236-23.636 23.73-31.25 38.961-4.406 8.812-1.609 16.15.828 20.146l24.766-24.764c1.312-1.314 3.363-1.545 4.93-.574 1.578.975 2.281 2.908 1.691 4.668-1.863 5.598.719 15.328 3.602 23.131 3.703-9.971 9.024-19.326 15.891-27.91l5.594-6.986c1.152-1.442 3.141-1.902 4.813-1.125 1.672.779 2.594 2.6 2.23 4.41-2.531 12.65 2.016 23.625 4.992 29.104 5.727-6.561 7.086-17.614 7.086-21.889 0-2.209 1.789-4 4-4s4 1.791 4 4c0 6.5 10.164 21.4 18.684 32.115l9.57-25.52c.688-1.836 2.605-2.898 4.531-2.518 14.14 2.828 19.668 19.69 21.828 32.633 4.594-10.353 9.633-22.105 9.711-22.287.855-1.996 3.156-2.944 5.16-2.139 10.762 4.305 18.25 14.547 23.102 23.932.159-30.019-2.467-88.478-22.543-130.94zm-11.95-51.912c-1.968-3.182-2.578-6.938-1.718-10.576.859-3.639 3.082-6.727 6.262-8.694 6.574-4.064 15.219-2.019 19.273 4.543 4.059 6.568 2.02 15.211-4.543 19.272-2.242 1.384-4.77 2.098-7.34 2.098-1.078 0-2.164-.125-3.242-.379-3.641-.86-6.727-3.085-8.692-6.264zm6.805-4.209v.004c.844 1.361 2.164 2.314 3.727 2.683 1.562.367 3.168.104 4.531-.738 2.812-1.74 3.687-5.445 1.949-8.26-1.133-1.83-3.102-2.84-5.114-2.84-1.078 0-2.168.289-3.148.894-1.359.842-2.312 2.166-2.684 3.727-.367 1.559-.105 3.168.739 4.53zm-53.106 24.111c-.699 2.094-2.945 3.236-5.058 2.529l-8.348-2.784c1.055 2.167 1.614 4.543 1.614 6.989 0 8.822-7.176 16-16 16s-16-7.178-16-16c0-.503.101-.988.147-1.484-9.335-.469-16.643-2.498-17.244-2.67-2.125-.605-3.352-2.818-2.746-4.941.602-2.127 2.832-3.358 4.937-2.752.266.078 26.309 7.297 40.508-3.352 1.047-.791 2.418-1.012 3.664-.596l12 4c2.093.7 3.225 2.966 2.526 5.061zm-19.793 6.735c0-1.6-.469-3.142-1.356-4.457-.014-.021-.014-.047-.028-.068-4.658 1.822-9.644 2.687-14.464 2.994-.097.502-.152 1.012-.152 1.532 0 4.412 3.59 8 8 8 4.41-.001 8-3.589 8-8.001zm-72-4c-2.209 0-4 1.791-4 4s1.791 4 4 4 4-1.791 4-4-1.79-4-4-4z" fill="url(#SVGID_1_)"/></g></svg>