<?xml version="1.0"?>
<svg xmlns="http://www.w3.org/2000/svg" id="Layer_1" data-name="Layer 1" viewBox="0 0 512 512" width="512" height="512"><path d="M238.34,208.92l-.75-1.03A226.469,226.469,0,0,0,29.51,433.65a228.865,228.865,0,0,0,2.51,33.85,225.594,225.594,0,0,0,7.3,32.3c16.95,2.76,28.73.452,38.861-3.861A226.015,226.015,0,0,1,72.02,467.5a228.865,228.865,0,0,1-2.51-33.85A225.422,225.422,0,0,1,108.963,305.9l.005-.007,1.782-2.579A226.693,226.693,0,0,1,240.962,213.9,19.614,19.614,0,0,0,238.34,208.92Z" style="fill:#d4e1f4"/><path d="M387.038,36.092A5.8,5.8,0,0,0,381.672,33H262V25.638c4-1.99,5.4-5.473,5.4-9.44A11.126,11.126,0,0,0,256.3,5,11.251,11.251,0,0,0,250,25.638V209h12V128H381.672a6.168,6.168,0,0,0,4.8-9.81l-28.49-38.02,28.49-37.89A5.834,5.834,0,0,0,387.038,36.092ZM345.683,76.76a6.039,6.039,0,0,0,0,7.228L369.672,116H263V45H369.672Z" style="fill:#1ae5be"/><path d="M38.356,505.724a92.229,92.229,0,0,0,14.837,1.268c19.877,0,32.474-7.742,44.727-15.06C110.836,484.218,124.19,476,147.871,476H148c25.444,0,37.925,6.695,51.133,13.786C213.07,497.269,227.478,505,255.943,505h.144c28.558,0,42.976-7.7,56.921-15.219C326.226,482.653,338.71,476,364.244,476h.1c23.623,0,36.972,8.058,49.88,15.732,15.056,8.951,30.628,18.268,59.547,13.539a5.966,5.966,0,0,0,4.777-4.164l.1-.312a232.491,232.491,0,1,0-445.063.757A6,6,0,0,0,38.356,505.724ZM465.069,363.275l-.421.2c-.311.15-.627.292-.932.419l-4.292,1.79a38.16,38.16,0,0,0-23.536,32.983l-.189,2.948a19.414,19.414,0,0,1-12.72,17l-18.568,6.772a3.171,3.171,0,0,1-3.954-1.607l-3.449-7.151a38.028,38.028,0,0,0-25.968-20.671,5.311,5.311,0,0,1-3.827-3.371l-2.712-7.434a9.5,9.5,0,0,1,.577-7.787l21.5-39.584a39.291,39.291,0,0,0-3.1-42.236,39.922,39.922,0,0,0-40.886-14.911l-3.345.773a10.649,10.649,0,0,1-7.54-1.043,3.4,3.4,0,0,1-1.763-3.431l2.5-13.781a237.38,237.38,0,0,1,8.527-33.089,221.72,221.72,0,0,1,124.1,133.213Zm-364.981-85.54a218.828,218.828,0,0,1,134.474-63.553,13.628,13.628,0,0,1-1.091,14.434l-5.63,7.672a7.389,7.389,0,0,1-6.7,2.968l-6.61-.687a29.779,29.779,0,0,0-29.2,15.285,7.606,7.606,0,0,1-7.439,3.695l-15.114-1.558a30.49,30.49,0,0,0-29.418,14.614,28.109,28.109,0,0,0,.827,30.082l10.268,15.4a26.435,26.435,0,0,0,34.886,8.3l10.213-5.785a13.078,13.078,0,0,1,12.849.008l19.91,11.317a10.627,10.627,0,0,0,5.823,1.4c6.784-.371,13.592,3.062,18.185,9.155l9.918,13.158c.791,1.05,1.639,2.084,2.521,3.073L271.675,371.2a.414.414,0,0,1,.108.391,1.073,1.073,0,0,1-.336.4l-18.525,14.932a36.5,36.5,0,0,0-12.281,18.589l-5.86,20.734a6.908,6.908,0,0,1-1.239,2.421l-6,7.572a41.1,41.1,0,0,0-8.981,22.794,3.8,3.8,0,0,1-1.068,2.4l-6.335-33.164a33.073,33.073,0,0,0-6.639-14.4L182.55,386.43a18.734,18.734,0,0,1-3.322-6.311l-7.628-25.2a32.756,32.756,0,0,0-23.361-22.2l-1.539-.383a13.767,13.767,0,0,1-5.86-3.105L130,319.5a55.618,55.618,0,0,1-8.16-9.4,35.1,35.1,0,0,0-26.614-14.871,33.634,33.634,0,0,0-9.394.836l-2.612.585A224.291,224.291,0,0,1,100.088,277.735Zm-26.457,31.9a35.914,35.914,0,0,0,10.07-.8l4.748-1.064a21.7,21.7,0,0,1,6.035-.568,23.156,23.156,0,0,1,17.552,9.821,67.425,67.425,0,0,0,9.943,11.4l10.845,9.735a25.8,25.8,0,0,0,10.988,5.822l1.539.383a20.7,20.7,0,0,1,14.764,14.03l7.627,25.194a30.686,30.686,0,0,0,5.441,10.336l21.969,27.436a21.014,21.014,0,0,1,4.22,9.155l6.612,34.613a11.1,11.1,0,0,0,3.766,6.5,10.908,10.908,0,0,0,11.467,1.576,15.777,15.777,0,0,0,9.318-13.371,29.163,29.163,0,0,1,6.414-16.148l6-7.572a18.811,18.811,0,0,0,3.381-6.612l5.859-20.731a24.562,24.562,0,0,1,8.265-12.51l18.526-14.934a12.7,12.7,0,0,0,4.644-7.8,12.432,12.432,0,0,0-2.99-10.324l-12.914-14.485c-.662-.743-1.3-1.519-1.894-2.31l-9.92-13.16c-6.9-9.158-17.348-14.346-27.957-13.936l-19.614-11.149a25.141,25.141,0,0,0-24.694-.016l-10.212,5.785a14.386,14.386,0,0,1-18.988-4.518l-10.267-15.395a16.067,16.067,0,0,1-.559-17.189,18.586,18.586,0,0,1,17.932-8.913l15.116,1.559a19.482,19.482,0,0,0,19.182-9.844,17.821,17.821,0,0,1,17.455-9.137l6.61.687a19.439,19.439,0,0,0,17.606-7.8l5.631-7.673a25.585,25.585,0,0,0,3.952-22.37c2.958-.116,5.924-.191,8.9-.191a220.716,220.716,0,0,1,73.762,12.589,249.072,249.072,0,0,0-9.123,35.266l-2.513,13.842a15.379,15.379,0,0,0,7.805,16.031A22.645,22.645,0,0,0,341.95,293.1l3.346-.774a27.913,27.913,0,0,1,28.586,10.426,27.259,27.259,0,0,1,2.147,29.3l-21.5,39.585a21.506,21.506,0,0,0-1.305,17.625l2.711,7.435a17.263,17.263,0,0,0,12.445,10.96A26.09,26.09,0,0,1,386.2,421.84l3.449,7.151a15.137,15.137,0,0,0,18.875,7.667l18.567-6.772a31.413,31.413,0,0,0,20.584-27.5l.188-2.948a26.236,26.236,0,0,1,16.18-22.673l4.3-1.793c.088-.037.177-.081.263-.119a222.556,222.556,0,0,1-.479,119.17c-22.193,2.73-34.1-4.474-47.773-12.6C406.716,473.309,391.267,464,364.342,464h-.11c-28.557,0-42.976,7.7-56.92,15.219C294.094,486.347,281.609,493,256.075,493h-.132c-25.444,0-37.923-6.694-51.131-13.786C190.876,471.731,176.468,464,148,464h-.143c-26.984,0-42.448,9.48-56.091,17.629C78.1,489.794,66.2,497.011,43.983,494.3A220.914,220.914,0,0,1,73.631,309.632Z" style="fill:#0635c9"/></svg>
