<svg id="Capa_1" enable-background="new 0 0 512 512" height="512" viewBox="0 0 512 512" width="512" xmlns="http://www.w3.org/2000/svg" xmlns:xlink="http://www.w3.org/1999/xlink"><linearGradient id="SVGID_1_" gradientUnits="userSpaceOnUse" x1="256" x2="256" y1="512" y2="0"><stop offset="0" stop-color="#c3ffe8"/><stop offset=".9973" stop-color="#f0fff4"/></linearGradient><linearGradient id="SVGID_2_" gradientUnits="userSpaceOnUse" x1="121" x2="391" y1="391" y2="121"><stop offset="0" stop-color="#9cffac"/><stop offset="1" stop-color="#00b59c"/></linearGradient><g><g><circle cx="256" cy="256" fill="url(#SVGID_1_)" r="256"/></g></g><g><g><path d="m404.07 185.498-77.568-77.568c-3.573-3.573-9.339-3.589-12.893-.035-22.609 22.609-24.283 58.112-5.566 83.134l-13.507 13.507-19.392-19.392c-3.573-3.573-9.339-3.589-12.893-.035l-32.143 32.143-12.928-12.928 19.286-19.286c3.553-3.553 3.537-9.32-.035-12.893l-19.392-19.392-64.286 64.286 19.392 19.392c3.573 3.573 9.339 3.589 12.893.035l19.286-19.286 12.928 12.928-32.143 32.143c-3.553 3.553-3.537 9.32.035 12.893l19.392 19.392-13.507 13.507c-25.023-18.717-60.525-17.043-83.134 5.566-3.553 3.553-3.537 9.32.036 12.893l77.568 77.568c3.573 3.573 9.339 3.589 12.893.035 22.609-22.609 24.283-58.111 5.566-83.134l13.507-13.507 19.392 19.392c3.573 3.573 9.339 3.589 12.893.035l32.143-32.143 12.928 12.928-19.286 19.286c-3.553 3.553-3.537 9.32.035 12.893l19.392 19.392 64.286-64.286-19.392-19.392c-3.573-3.573-9.339-3.589-12.893-.035l-19.286 19.286-12.928-12.928 32.143-32.143c3.553-3.553 3.537-9.32-.035-12.893l-19.392-19.392 13.507-13.507c25.023 18.716 60.525 17.043 83.134-5.566 3.552-3.554 3.537-9.32-.036-12.893zm-31.895 122.391-64.286 64.286 19.392 19.392c3.573 3.573 9.339 3.589 12.893.035l51.428-51.429c3.553-3.553 3.538-9.32-.035-12.893zm-232.35-103.778 64.286-64.286-19.392-19.392c-3.573-3.573-9.339-3.589-12.893-.035l-51.428 51.429c-3.553 3.553-3.538 9.32.035 12.893zm251.21-70.218c3.553-3.553 3.537-9.32-.035-12.893s-9.339-3.589-12.893-.035l-6.428 6.429 12.928 12.928zm-270.07 244.214c-3.553 3.553-3.537 9.32.035 12.893s9.339 3.589 12.893.035l6.428-6.429-12.928-12.928z" fill="url(#SVGID_2_)"/></g></g></svg>