<?xml version="1.0" encoding="iso-8859-1"?>
<!-- Generator: Adobe Illustrator 19.0.0, SVG Export Plug-In . SVG Version: 6.00 Build 0)  -->
<svg version="1.1" id="Capa_1" xmlns="http://www.w3.org/2000/svg" xmlns:xlink="http://www.w3.org/1999/xlink" x="0px" y="0px"
	 viewBox="0 0 480 480" style="enable-background:new 0 0 480 480;" xml:space="preserve">
<path style="fill:#FCF05A;" d="M120,240c0-12.08,17.52-21.248,21.064-32.152c3.664-11.296-4.992-28.984,1.848-38.4
	s26.464-6.696,36-13.6s12.736-26.336,24-30C213.808,122.304,227.92,136,240,136c12.08,0,26.192-13.696,37.096-10.152
	c11.296,3.664,14.632,23.16,24,30.008s29.048,4.104,36,13.6s-1.816,27.096,1.848,38.4C342.48,218.752,360,227.92,360,240
	s-17.52,21.248-21.064,32.152c-3.664,11.296,4.992,28.984-1.848,38.4s-26.464,6.696-36,13.6s-12.736,26.336-24,30
	C266.192,357.696,252.08,344,240,344s-26.192,13.696-37.096,10.152c-11.296-3.664-14.632-23.16-24-30.008s-29.048-4.104-36-13.6
	s1.816-27.096-1.848-38.4C137.52,261.248,120,252.08,120,240L120,240z"/>
<circle style="fill:#FDBD40;" cx="240" cy="240" r="80"/>
<g>
	<path style="fill:#AABECE;" d="M240,416c-97.202-0.012-175.99-78.82-175.978-176.022S142.842,63.988,240.044,64
		c97.202,0.012,175.99,78.82,175.978,176.022c-0.006,50.084-21.35,97.794-58.686,131.178l-10.672-11.92
		c65.634-58.823,71.154-159.715,12.331-225.349S199.28,62.777,133.647,121.6s-71.154,159.715-12.331,225.349
		c35.614,39.737,88.731,59.044,141.549,51.451l2.272,15.84C256.81,415.421,248.41,416.01,240,416L240,416z"/>
	<path style="fill:#AABECE;" d="M240,464C116.253,463.965,15.965,363.619,16,239.872c0.011-37.661,9.514-74.711,27.632-107.728
		l14.016,7.712C2.407,240.577,39.276,367.009,139.997,422.251s227.153,18.372,282.395-82.349
		c23.149-42.207,30.941-91.136,22.049-138.446l15.728-2.944c22.803,121.704-57.373,238.851-179.077,261.654
		C267.541,462.704,253.786,463.988,240,464L240,464z"/>
	<path style="fill:#AABECE;" d="M395.032,101.336c-67.105-74.995-178.264-91.214-264-38.52l-8.392-13.6
		c92.328-56.751,212.037-39.3,284.32,41.448L395.032,101.336z"/>
</g>
<circle style="fill:#E9686A;" cx="80" cy="88" r="32"/>
<circle style="fill:#7FCAC9;" cx="312" cy="392" r="24"/>
<circle style="fill:#FDBD40;" cx="440" cy="144" r="32"/>
<g>
	<g>
		<path id="SVGCleanerId_0" style="fill:#7D8D9C;" d="M400,16h16v16h-16V16z"/>
	</g>
	<g>
		<path id="SVGCleanerId_1" style="fill:#7D8D9C;" d="M432,32h16v16h-16V32z"/>
	</g>
	<g>
		<path id="SVGCleanerId_2" style="fill:#7D8D9C;" d="M0,416h16v16H0V416z"/>
	</g>
	<g>
		<path id="SVGCleanerId_3" style="fill:#7D8D9C;" d="M32,432h16v16H32V432z"/>
	</g>
	<g>
		<path id="SVGCleanerId_4" style="fill:#7D8D9C;" d="M416,416h16v16h-16V416z"/>
	</g>
	<g>
		<path id="SVGCleanerId_5" style="fill:#7D8D9C;" d="M448,432h16v16h-16V432z"/>
	</g>
</g>
<path d="M240,328c48.601,0,88-39.399,88-88s-39.399-88-88-88s-88,39.399-88,88C152.057,288.577,191.423,327.943,240,328z M240,168
	c39.764,0,72,32.236,72,72s-32.236,72-72,72s-72-32.236-72-72C168.044,200.254,200.254,168.044,240,168z"/>
<path d="M136.448,315.248c6.378,6.795,15.127,10.874,24.432,11.392c4.636,0.511,9.14,1.866,13.288,4
	c3.239,3.255,5.861,7.072,7.736,11.264c3.376,8.776,10.019,15.904,18.536,19.888c2.036,0.659,4.164,0.988,6.304,0.976
	c6.925-0.57,13.644-2.633,19.696-6.048c4.186-2.404,8.785-4.005,13.56-4.72c4.786,0.704,9.399,2.296,13.6,4.696
	c7.707,4.934,17.004,6.747,26,5.072c8.519-3.986,15.162-11.117,18.536-19.896c1.875-4.19,4.497-8.004,7.736-11.256
	c4.148-2.134,8.652-3.489,13.288-4c9.306-0.514,18.056-4.594,24.432-11.392c4.466-8.111,5.643-17.629,3.288-26.584
	c-0.959-4.625-1.059-9.387-0.296-14.048c2.049-3.99,4.799-7.578,8.12-10.592c7.373-5.976,12.14-14.58,13.296-24
	c-1.156-9.42-5.923-18.024-13.296-24c-3.334-3.009-6.099-6.594-8.16-10.584c-0.763-4.661-0.663-9.423,0.296-14.048
	c2.355-8.955,1.178-18.473-3.288-26.584c-6.373-6.807-15.122-10.898-24.432-11.424c-4.636-0.511-9.14-1.866-13.288-4
	c-3.239-3.255-5.861-7.072-7.736-11.264c-3.376-8.776-10.019-15.904-18.536-19.888c-8.996-1.71-18.306,0.106-26,5.072
	c-4.186,2.404-8.785,4.005-13.56,4.72c-4.786-0.704-9.399-2.296-13.6-4.696c-7.702-4.945-17.004-6.76-26-5.072
	c-8.519,3.986-15.162,11.117-18.536,19.896c-1.875,4.19-4.497,8.004-7.736,11.256c-4.148,2.134-8.652,3.489-13.288,4
	c-9.306,0.514-18.056,4.594-24.432,11.392c-4.466,8.111-5.643,17.629-3.288,26.584c0.959,4.625,1.059,9.387,0.296,14.048
	c-2.049,3.99-4.799,7.578-8.12,10.592c-7.373,5.976-12.14,14.58-13.296,24c1.156,9.42,5.923,18.024,13.296,24
	c3.334,3.009,6.099,6.594,8.16,10.584c0.763,4.661,0.663,9.423-0.296,14.048C130.796,297.597,131.974,307.128,136.448,315.248
	L136.448,315.248z M128,240c0-3.64,4.728-8.624,8.904-13.016c5.104-4.619,9.123-10.309,11.768-16.664
	c1.657-6.892,1.78-14.063,0.36-21.008c-1.296-4.982-1.177-10.226,0.344-15.144c1.992-2.736,8.624-4,14.464-5.08
	c6.997-0.772,13.737-3.083,19.736-6.768c5.31-4.535,9.552-10.187,12.424-16.552c2.864-5.264,6.112-11.24,9.416-12.312
	c0.461-0.14,0.942-0.208,1.424-0.2c4.499,0.743,8.832,2.273,12.8,4.52c6.247,3.544,13.199,5.669,20.36,6.224
	c7.17-0.551,14.129-2.676,20.384-6.224c5.264-2.472,11.2-5.32,14.24-4.32c3.304,1.072,6.552,7.048,9.416,12.312
	c2.86,6.361,7.089,12.013,12.384,16.552c6,3.681,12.739,5.992,19.736,6.768c5.84,1.096,12.464,2.344,14.456,5.08
	c1.529,4.919,1.65,10.167,0.352,15.152c-1.42,6.942-1.297,14.111,0.36,21c2.645,6.355,6.664,12.045,11.768,16.664
	C347.272,231.376,352,236.36,352,240s-4.728,8.624-8.904,13.016c-5.104,4.619-9.123,10.309-11.768,16.664
	c-1.657,6.892-1.78,14.063-0.36,21.008c1.296,4.982,1.177,10.226-0.344,15.144c-1.992,2.736-8.624,4-14.464,5.08
	c-6.997,0.772-13.737,3.083-19.736,6.768c-5.295,4.539-9.524,10.191-12.384,16.552c-2.864,5.272-6.112,11.2-9.416,12.312
	c-3.008,0.952-8.968-1.84-14.24-4.32c-6.255-3.548-13.214-5.673-20.384-6.224c-7.17,0.551-14.129,2.676-20.384,6.224
	c-5.264,2.48-11.2,5.36-14.24,4.32c-3.304-1.072-6.552-7.04-9.416-12.312c-2.86-6.361-7.089-12.013-12.384-16.552
	c-6-3.681-12.739-5.992-19.736-6.768c-5.84-1.096-12.464-2.344-14.456-5.08c-1.529-4.919-1.65-10.167-0.352-15.152
	c1.42-6.942,1.297-14.111-0.36-21c-2.645-6.355-6.664-12.045-11.768-16.664C132.728,248.624,128,243.64,128,240L128,240z"/>
<path d="M240,64c-97.202,0.078-175.937,78.939-175.859,176.141C64.218,337.343,143.079,416.078,240.281,416
	c8.317-0.007,16.622-0.603,24.855-1.784l-2.272-15.84c-87.481,12.655-168.658-48.004-181.313-135.486S129.555,94.232,217.037,81.578
	s168.658,48.004,181.313,135.486c7.676,53.063-11.728,106.444-51.686,142.193l10.672,11.92
	c72.447-64.806,78.641-176.07,13.835-248.517C337.784,85.335,290.078,64.001,240,64L240,64z"/>
<path d="M240,448c-114.911-0.034-208.037-93.215-208.003-208.125c0.01-34.965,8.832-69.364,25.651-100.019l-14.016-7.712
	c-59.506,108.46-19.821,244.624,88.64,304.13s244.624,19.821,304.13-88.64c24.936-45.449,33.335-98.141,23.767-149.09l-15.728,2.944
	c21.164,113.017-53.298,221.791-166.315,242.955C265.553,446.797,252.791,447.988,240,448L240,448z"/>
<path d="M240,16c-41.45-0.032-82.093,11.457-117.392,33.184l8.392,13.6c85.736-52.694,196.895-36.475,264,38.52l11.928-10.672
	C364.409,43.178,303.716,16.043,240,16z"/>
<path d="M80,128c22.091,0,40-17.909,40-40s-17.909-40-40-40S40,65.909,40,88C40.026,110.08,57.92,127.974,80,128z M80,64
	c13.255,0,24,10.745,24,24s-10.745,24-24,24s-24-10.745-24-24S66.745,64,80,64z"/>
<path d="M312,360c-17.673,0-32,14.327-32,32s14.327,32,32,32s32-14.327,32-32S329.673,360,312,360z M312,408
	c-8.837,0-16-7.163-16-16s7.163-16,16-16s16,7.163,16,16S320.837,408,312,408z"/>
<path d="M440,104c-22.091,0-40,17.909-40,40s17.909,40,40,40s40-17.909,40-40C479.974,121.92,462.08,104.026,440,104z M440,168
	c-13.255,0-24-10.745-24-24s10.745-24,24-24s24,10.745,24,24S453.255,168,440,168z"/>
<path id="SVGCleanerId_0_1_" d="M400,16h16v16h-16V16z"/>
<path id="SVGCleanerId_1_1_" d="M432,32h16v16h-16V32z"/>
<path id="SVGCleanerId_2_1_" d="M0,416h16v16H0V416z"/>
<path id="SVGCleanerId_3_1_" d="M32,432h16v16H32V432z"/>
<path id="SVGCleanerId_4_1_" d="M416,416h16v16h-16V416z"/>
<path id="SVGCleanerId_5_1_" d="M448,432h16v16h-16V432z"/>
<g>
</g>
<g>
</g>
<g>
</g>
<g>
</g>
<g>
</g>
<g>
</g>
<g>
</g>
<g>
</g>
<g>
</g>
<g>
</g>
<g>
</g>
<g>
</g>
<g>
</g>
<g>
</g>
<g>
</g>
</svg>
